PathFileType	4	(X/Y/Z)	/Users/itak/Documents/Research/Walk-IL/dataset/trc/00063_00006.trc
DataRate	CameraRate	NumFrames	NumMarkers	Units	OrigDataRate	OrigDataStartFrame	OrigNumFrames
100.000000	100.000000	4	53	mm	100.000000	348	697
Frame#	Time	RPSI			LPSI			L3			STRN			T10			C7			CLAV			RBAK			LBAK			LSHO			LUPA			LAEL			LAOL			LWTS			LWPS			LFRA			LIFD			LHPS			LHTS			RSHO			RUPA			RAEL			RAOL			RWTS			RWPS			RFRA			RIFD			RHTS			RHPS			RBHD			LFHD			RFHD			LBHD			LHIP			RHIP			RASI			LASI			LKNE			LTHI			LANK			LTIP			LTOE			LMT1			LMT5			LHEE			RKNE			RTHI			RANK			RTIP			RTOE			RMT1			RMT5			RHEE			
		X1	Y1	Z1	X2	Y2	Z2	X3	Y3	Z3	X4	Y4	Z4	X5	Y5	Z5	X6	Y6	Z6	X7	Y7	Z7	X8	Y8	Z8	X9	Y9	Z9	X10	Y10	Z10	X11	Y11	Z11	X12	Y12	Z12	X13	Y13	Z13	X14	Y14	Z14	X15	Y15	Z15	X16	Y16	Z16	X17	Y17	Z17	X18	Y18	Z18	X19	Y19	Z19	X20	Y20	Z20	X21	Y21	Z21	X22	Y22	Z22	X23	Y23	Z23	X24	Y24	Z24	X25	Y25	Z25	X26	Y26	Z26	X27	Y27	Z27	X28	Y28	Z28	X29	Y29	Z29	X30	Y30	Z30	X31	Y31	Z31	X32	Y32	Z32	X33	Y33	Z33	X34	Y34	Z34	X35	Y35	Z35	X36	Y36	Z36	X37	Y37	Z37	X38	Y38	Z38	X39	Y39	Z39	X40	Y40	Z40	X41	Y41	Z41	X42	Y42	Z42	X43	Y43	Z43	X44	Y44	Z44	X45	Y45	Z45	X46	Y46	Z46	X47	Y47	Z47	X48	Y48	Z48	X49	Y49	Z49	X50	Y50	Z50	X51	Y51	Z51	X52	Y52	Z52	X53	Y53	Z53	

349	3.48	802.9823608398438	990.95654296875	-285.7923889160156	719.0021362304688	986.1857299804688	-136.0869140625	753.636962890625	1048.569458007812	-199.5349731445312	558.4694213867188	1243.06982421875	-361.0748596191406	754.1251220703125	1176.7412109375	-174.7718505859375	704.7283935546875	1444.1796875	-209.0289001464844	579.9693603515625	1357.184448242188	-338.2774658203125	801.113037109375	1306.372802734375	-218.8569793701172	651.8824462890625	1405.64599609375	-121.9132995605469	529.7361450195312	1408.957641601562	-141.78125	486.1287231445312	1285.943603515625	-71.81101226806641	438.52294921875	1075.971801757812	-67.59712219238281	540.7711791992188	1050.697265625	-82.71865844726562	410.41357421875	929.0150146484375	-283.2122497558594	393.1788940429688	877.4337158203125	-218.5337066650391	407.7046813964844	985.78515625	-128.0203399658203	412.7721557617188	780.4129028320312	-397.2186279296875	374.9854431152344	823.9068603515625	-285.974853515625	391.3719787597656	866.8180541992188	-340.4743957519531	785.0809936523438	1414.128540039062	-375.6974792480469	846.0348510742188	1356.225708007812	-405.3397216796875	953.318603515625	1123.202026367188	-383.3566284179688	876.255615234375	1083.450073242188	-335.619873046875	891.2244873046875	841.3158569335938	-441.1636962890625	975.9912719726562	849.3738403320312	-420.7424011230469	971.6448974609375	1041.836303710938	-393.1456604003906	920.5132446289062	655.3345947265625	-400.0360412597656	904.37353515625	735.7881469726562	-439.03857421875	977.0338134765625	751.628662109375	-428.5198669433594	675.7885131835938	1620.604125976562	-207.9390563964844	571.168701171875	1660.520385742188	-392.8768310546875	518.0777587890625	1663.59228515625	-278.6000671386719	725.4593505859375	1610.999145507812	-336.134033203125	585.8485717773438	917.9243774414062	-108.5284576416016	788.9796752929688	924.7703857421875	-391.4546813964844	673.4630737304688	943.5626220703125	-440.3777160644531	521.6100463867188	927.1741333007812	-218.461181640625	685.7514038085938	459.5950622558594	-220.4737396240234	638.8673095703125	594.593505859375	-162.1878967285156	874.9420776367188	46.79205322265625	-107.3635635375977	781.0401611328125	236.0003051757812	-154.9539031982422	840.692626953125	33.55771636962891	-308.7464599609375	896.5958862304688	36.30939102172852	-270.4252624511719	812.609619140625	33.68108749389648	-197.5560455322266	961.4948120117188	69.52114868164062	-77.91374969482422	574.83154296875	523.0464477539062	-503.46923828125	676.3844604492188	773.9094848632812	-478.7538757324219	472.9760131835938	43.16484069824219	-586.7789916992188	548.6702270507812	405.5836791992188	-530.9160766601562	285.9958801269531	141.4393920898438	-589.9917602539062	326.6271057128906	115.7573699951172	-540.0392456054688	370.8901977539062	96.79874420166016	-627.3403930664062	502.287841796875	28.04659461975098	-522.39453125	
350	3.49	795.0748901367188	990.44287109375	-293.239501953125	712.5278930664062	986.07666015625	-142.8528594970703	746.47119140625	1047.939819335938	-206.5621795654297	550.0980224609375	1242.547607421875	-366.5577392578125	747.3203735351562	1176.03759765625	-181.8773040771484	698.127197265625	1443.539672851562	-215.9197692871094	572.0695190429688	1356.666625976562	-344.0759887695312	794.062255859375	1305.494140625	-226.5351867675781	645.9752807617188	1405.198120117188	-128.3318939208984	523.57080078125	1408.765747070312	-147.2114715576172	480.376953125	1285.932006835938	-76.69304656982422	432.7127380371094	1076.048461914062	-71.72598266601562	534.68017578125	1050.6220703125	-87.75105285644531	402.1658630371094	927.607177734375	-286.0554809570312	385.552978515625	876.5281982421875	-220.8113555908203	401.1710510253906	985.5022583007812	-131.2320709228516	402.9211730957031	778.186279296875	-398.98095703125	366.5520629882812	822.5940551757812	-287.6338806152344	382.3639221191406	865.0611572265625	-342.6304321289062	776.9549560546875	1413.298706054688	-383.17138671875	837.5849609375	1355.401611328125	-413.2964172363281	945.138916015625	1122.56005859375	-392.5032958984375	868.4569702148438	1082.44970703125	-344.4021301269531	883.247802734375	840.5224609375	-449.9568176269531	968.2464599609375	848.8159790039062	-430.4252624511719	963.54736328125	1041.260009765625	-402.6028137207031	913.656005859375	654.5934448242188	-409.0018920898438	896.6978759765625	734.8751831054688	-447.9591979980469	970.0514526367188	752.1705322265625	-439.0257568359375	669.4470825195312	1620.070678710938	-214.3934783935547	562.799560546875	1660.073364257812	-398.2109375	510.8822021484375	1663.0263671875	-283.3442077636719	717.7381591796875	1610.589721679688	-343.2048950195312	579.8472900390625	917.693115234375	-113.720458984375	780.0153198242188	924.0822143554688	-398.6062622070312	664.0337524414062	942.707275390625	-446.5287780761719	514.8247680664062	926.5654907226562	-222.6513824462891	680.8843383789062	459.079833984375	-223.6907653808594	633.6481323242188	594.3323364257812	-165.8009338378906	874.33447265625	48.32225036621094	-107.7041168212891	778.1323852539062	236.8581237792969	-156.402099609375	840.58251953125	33.6237907409668	-308.5850524902344	896.0252685546875	36.68370056152344	-270.4902648925781	812.0704956054688	33.68305206298828	-197.6102600097656	960.6295166015625	72.76376342773438	-78.58602142333984	564.7079467773438	522.1920776367188	-507.145751953125	666.6809692382812	773.0943603515625	-484.3129577636719	465.5779113769531	41.27051162719727	-586.6452026367188	538.663330078125	404.0234375	-533.690185546875	277.767578125	137.4951171875	-589.55126953125	318.6763916015625	112.3586883544922	-539.674072265625	362.9234924316406	93.52922821044922	-626.9386596679688	495.2757568359375	26.74104881286621	-522.2459716796875	
351	3.5	786.887451171875	990.0569458007812	-300.6750793457031	705.7434692382812	986.0401611328125	-149.6187438964844	738.9923706054688	1047.341674804688	-213.5876922607422	541.547119140625	1242.159912109375	-372.11669921875	740.2815551757812	1175.41796875	-189.0331726074219	691.416748046875	1443.001098632812	-222.8987121582031	564.01513671875	1356.267822265625	-349.9562377929688	786.8612670898438	1304.701293945312	-234.3003540039062	639.9371337890625	1404.862182617188	-134.8539428710938	517.250244140625	1408.72119140625	-152.7710113525391	474.46826171875	1286.095703125	-81.66599273681641	426.7871704101562	1076.28125	-75.857666015625	528.48193359375	1050.720458984375	-92.78585815429688	393.805419921875	926.09375	-288.6687316894531	377.8705749511719	875.6062622070312	-222.8238067626953	394.5385437011719	985.31298828125	-134.3326568603516	392.9405822753906	775.7243041992188	-400.322998046875	358.0150451660156	821.1770629882812	-288.9356079101562	373.2111206054688	863.1392211914062	-344.4755859375	768.6864624023438	1412.56201171875	-390.7427062988281	828.9617309570312	1354.635009765625	-421.3551025390625	936.7112426757812	1121.945678710938	-401.7320861816406	860.400146484375	1081.543334960938	-353.2359313964844	874.9754638671875	839.7896728515625	-458.9024353027344	960.1822509765625	848.2975463867188	-440.1807250976562	955.1765747070312	1040.726684570312	-412.1415100097656	906.4360961914062	653.8416748046875	-418.0980834960938	888.6586303710938	733.9476928710938	-457.0122985839844	962.7313232421875	752.7550048828125	-449.6316833496094	663.0797119140625	1619.62109375	-220.8749847412109	554.36376953125	1659.795532226562	-403.5188903808594	503.6531066894531	1662.59912109375	-288.0714721679688	709.9652099609375	1610.331787109375	-350.3401794433594	573.5653076171875	917.4803466796875	-118.9795608520508	770.781982421875	923.5635375976562	-405.7458801269531	654.3667602539062	942.0214233398438	-452.6837158203125	507.7005310058594	926.032470703125	-226.9419097900391	675.656494140625	458.62744140625	-227.1699981689453	628.1956176757812	594.1112060546875	-169.6592864990234	873.6834716796875	50.04198837280273	-108.131950378418	775.0340576171875	237.8524169921875	-157.9660491943359	840.4473266601562	33.68140029907227	-308.4308776855469	895.4381103515625	37.11339950561523	-270.5870361328125	811.4820556640625	33.68284225463867	-197.68603515625	959.6829223632812	76.31940460205078	-79.43948364257812	554.2996826171875	521.4360961914062	-510.6160583496094	656.4385986328125	772.4679565429688	-489.6542053222656	460.0951538085938	39.33679580688477	-586.218017578125	528.830810546875	402.432373046875	-536.2766723632812	270.9096984863281	132.1871643066406	-588.9013061523438	312.1334228515625	107.8073654174805	-539.0730590820312	356.6141357421875	89.47067260742188	-626.204833984375	490.2007141113281	25.56842613220215	-521.782958984375	
352	3.51	778.4351806640625	989.8468017578125	-308.0652465820312	698.6466064453125	986.0852661132812	-156.3447723388672	731.1773071289062	1046.76123046875	-220.6061401367188	532.8179321289062	1241.9248046875	-377.7481689453125	733.0148315429688	1174.89599609375	-196.2346649169922	684.6046142578125	1442.581420898438	-229.9621124267578	555.8040771484375	1356.004516601562	-355.9103698730469	779.52197265625	1304.011474609375	-242.1509094238281	633.7782592773438	1404.644653320312	-141.4734802246094	510.8025512695312	1408.824951171875	-158.4318695068359	468.4460754394531	1286.421997070312	-86.70997619628906	420.7569274902344	1076.658569335938	-79.99069976806641	522.2052612304688	1050.978759765625	-97.80728912353516	385.3493041992188	924.4703369140625	-291.0286254882812	370.1710510253906	874.6516723632812	-224.5529174804688	387.8289184570312	985.2050170898438	-137.3086547851562	382.85009765625	773.0667114257812	-401.2589111328125	349.3984069824219	819.6543579101562	-289.8729553222656	363.9288024902344	861.0659790039062	-345.9931335449219	760.2777709960938	1411.921264648438	-398.4160766601562	820.163330078125	1353.926513671875	-429.5260925292969	928.0408325195312	1121.360107421875	-411.0670166015625	852.107177734375	1080.7373046875	-362.101806640625	866.4025268554688	839.1124267578125	-467.9871826171875	951.7977905273438	847.8284301757812	-450.0162048339844	946.5319213867188	1040.225708007812	-421.771240234375	898.881591796875	653.1223754882812	-427.3307189941406	880.2838134765625	733.0504150390625	-466.2066955566406	954.9487915039062	753.160400390625	-460.1796569824219	656.6840209960938	1619.266235351562	-227.389404296875	545.8622436523438	1659.707153320312	-408.7940063476562	496.3925476074219	1662.331298828125	-292.7727966308594	702.1300048828125	1610.233764648438	-357.5216674804688	567.0010986328125	917.2864379882812	-124.2877578735352	761.2882080078125	923.2586059570312	-412.8592224121094	644.4788818359375	941.5441284179688	-458.838623046875	500.2078857421875	925.5667114257812	-231.3849334716797	670.002685546875	458.2051391601562	-230.919189453125	622.4812622070312	593.91796875	-173.7786560058594	872.977783203125	51.95118713378906	-108.6479034423828	771.7275390625	238.9678344726562	-159.6431274414062	840.277099609375	33.73158645629883	-308.2804565429688	894.8195190429688	37.61997222900391	-270.7238464355469	810.860595703125	33.65705490112305	-197.7772827148438	958.6249389648438	80.23143768310547	-80.50418853759766	543.7453002929688	520.7991943359375	-513.8797607421875	645.7122192382812	772.0418090820312	-494.7638244628906	456.1000061035156	37.56222915649414	-585.7692260742188	519.20751953125	400.914794921875	-538.7479858398438	265.0645446777344	125.8228225708008	-588.1199340820312	306.6770629882812	102.4033355712891	-538.3539428710938	351.5579528808594	84.91241455078125	-625.3079833984375	486.6869506835938	24.73852157592773	-521.3067626953125	
